<svg width="18.000000" height="15.000000" viewBox="0 0 18 15" fill="none" xmlns="http://www.w3.org/2000/svg" xmlns:xlink="http://www.w3.org/1999/xlink">
	<desc>
			Created with Pixso.
	</desc>
	<defs/>
	<path id="Форма 1" d="M1.28 0L16.71 0C17.42 0 18 0.67 18 1.5C18 2.32 17.42 3 16.71 3L1.28 3C0.57 3 0 2.32 0 1.5C0 0.67 0.57 0 1.28 0Z" fill="#FFFFFF" fill-opacity="1.000000" fill-rule="evenodd"/>
	<path id="Форма 1" d="M1.28 6L16.71 6C17.42 6 18 6.67 18 7.5C18 8.32 17.42 9 16.71 9L1.28 9C0.57 9 0 8.32 0 7.5C0 6.67 0.57 6 1.28 6Z" fill="#FFFFFF" fill-opacity="1.000000" fill-rule="evenodd"/>
	<path id="Форма 1" d="M1.28 12L16.71 12C17.42 12 18 12.67 18 13.5C18 14.32 17.42 15 16.71 15L1.28 15C0.57 15 0 14.32 0 13.5C0 12.67 0.57 12 1.28 12Z" fill="#FFFBFB" fill-opacity="1.000000" fill-rule="evenodd"/>
</svg>
