<?xml version="1.0" encoding="utf-8"?>
<!-- Generator: Adobe Illustrator 18.0.0, SVG Export Plug-In . SVG Version: 6.00 Build 0)  -->
<!DOCTYPE svg PUBLIC "-//W3C//DTD SVG 1.1//EN" "http://www.w3.org/Graphics/SVG/1.1/DTD/svg11.dtd">
<svg version="1.1" id="Layer_1" xmlns="http://www.w3.org/2000/svg" xmlns:xlink="http://www.w3.org/1999/xlink" x="0px" y="0px"
	 viewBox="0 0 512 512" enable-background="new 0 0 512 512" xml:space="preserve">
<g>
	<g>
		<g>
			<path d="M432.7,451.2c-37.5,0-75.1,0-112.6,0c-62.3,0-124.6,0-186.9,0c-18,0-35.9,0-53.9,0c2.5,2.5,5,5,7.5,7.5c0-32,0-64,0-96
				c0-64,0-128,0-192c0-47.9,0-95.8,0-143.6c0-4.1,0-8.1,0-12.2c-2.5,2.5-5,5-7.5,7.5c37.5,0,75.1,0,112.6,0c62.3,0,124.6,0,186.9,0
				c18,0,35.9,0,53.9,0c-2.5-2.5-5-5-7.5-7.5c0,32,0,64,0,96c0,64,0,128,0,192c0,47.9,0,95.8,0,143.6c0,4.1,0,8.1,0,12.2
				c0,9.7,15,9.7,15,0c0-32,0-64,0-96c0-64,0-128,0-192c0-47.9,0-95.8,0-143.6c0-4.1,0-8.1,0-12.2c0-4.1-3.4-7.5-7.5-7.5
				c-37.5,0-75.1,0-112.6,0c-62.3,0-124.6,0-186.9,0c-18,0-35.9,0-53.9,0c-4.1,0-7.5,3.4-7.5,7.5c0,32,0,64,0,96c0,64,0,128,0,192
				c0,47.9,0,95.8,0,143.6c0,4.1,0,8.1,0,12.2c0,4.1,3.4,7.5,7.5,7.5c37.5,0,75.1,0,112.6,0c62.3,0,124.6,0,186.9,0
				c18,0,35.9,0,53.9,0C442.4,466.2,442.4,451.2,432.7,451.2z"/>
		</g>
	</g>
	<g>
		<g>
			<path d="M248.5,14.9c0,32,0,64,0,96c0,64,0,128,0,192c0,47.9,0,95.8,0,143.6c0,4.1,0,8.1,0,12.2c0,9.7,15,9.7,15,0
				c0-32,0-64,0-96c0-64,0-128,0-192c0-47.9,0-95.8,0-143.6c0-4.1,0-8.1,0-12.2C263.5,5.2,248.5,5.2,248.5,14.9L248.5,14.9z"/>
		</g>
	</g>
	<g>
		<g>
			<path d="M79.3,119.2c37.5,0,75.1,0,112.6,0c62.3,0,124.6,0,186.9,0c18,0,35.9,0,53.9,0c9.7,0,9.7-15,0-15c-37.5,0-75.1,0-112.6,0
				c-62.3,0-124.6,0-186.9,0c-18,0-35.9,0-53.9,0C69.6,104.2,69.6,119.2,79.3,119.2L79.3,119.2z"/>
		</g>
	</g>
	<g>
		<g>
			<path d="M432.7,104.2c-37.5,0-75.1,0-112.6,0c-62.3,0-124.6,0-186.9,0c-18,0-35.9,0-53.9,0c2.5,2.5,5,5,7.5,7.5
				c0-32.3,0-64.5,0-96.8c-2.5,2.5-5,5-7.5,7.5c37.5,0,75.1,0,112.6,0c62.3,0,124.6,0,186.9,0c18,0,35.9,0,53.9,0
				c-2.5-2.5-5-5-7.5-7.5c0,32.3,0,64.5,0,96.8c0,9.7,15,9.7,15,0c0-32.3,0-64.5,0-96.8c0-4.1-3.4-7.5-7.5-7.5
				c-37.5,0-75.1,0-112.6,0c-62.3,0-124.6,0-186.9,0c-18,0-35.9,0-53.9,0c-4.1,0-7.5,3.4-7.5,7.5c0,32.3,0,64.5,0,96.8
				c0,4.1,3.4,7.5,7.5,7.5c37.5,0,75.1,0,112.6,0c62.3,0,124.6,0,186.9,0c18,0,35.9,0,53.9,0C442.4,119.2,442.4,104.2,432.7,104.2z"
				/>
		</g>
	</g>
	<g>
		<g>
			<path d="M432.7,451.2c-37.5,0-75.1,0-112.6,0c-62.3,0-124.6,0-186.9,0c-18,0-35.9,0-53.9,0c2.5,2.5,5,5,7.5,7.5
				c0-38.1,0-76.1,0-114.2c0-61.8,0-123.6,0-185.4c0-15.8,0-31.6,0-47.5c-2.5,2.5-5,5-7.5,7.5c37.5,0,75.1,0,112.6,0
				c62.3,0,124.6,0,186.9,0c18,0,35.9,0,53.9,0c-2.5-2.5-5-5-7.5-7.5c0,38.1,0,76.1,0,114.2c0,61.8,0,123.6,0,185.4
				c0,15.8,0,31.6,0,47.5c0,9.7,15,9.7,15,0c0-38.1,0-76.1,0-114.2c0-61.8,0-123.6,0-185.4c0-15.8,0-31.6,0-47.5
				c0-4.1-3.4-7.5-7.5-7.5c-37.5,0-75.1,0-112.6,0c-62.3,0-124.6,0-186.9,0c-18,0-35.9,0-53.9,0c-4.1,0-7.5,3.4-7.5,7.5
				c0,38.1,0,76.1,0,114.2c0,61.8,0,123.6,0,185.4c0,15.8,0,31.6,0,47.5c0,4.1,3.4,7.5,7.5,7.5c37.5,0,75.1,0,112.6,0
				c62.3,0,124.6,0,186.9,0c18,0,35.9,0,53.9,0C442.4,466.2,442.4,451.2,432.7,451.2z"/>
		</g>
	</g>
	<g>
		<g>
			<path d="M274.9,269.2c0,10.7,0,21.3,0,32c0,9.7,15,9.7,15,0c0-10.7,0-21.3,0-32C289.9,259.6,274.9,259.6,274.9,269.2L274.9,269.2
				z"/>
		</g>
	</g>
	<g>
		<g>
			<path d="M222.1,269.2c0,10.7,0,21.3,0,32c0,9.7,15,9.7,15,0c0-10.7,0-21.3,0-32C237.1,259.6,222.1,259.6,222.1,269.2L222.1,269.2
				z"/>
		</g>
	</g>
	<g>
		<g>
			<path d="M274.9,47.3c0,10.7,0,21.3,0,32c0,9.7,15,9.7,15,0c0-10.7,0-21.3,0-32C289.9,37.6,274.9,37.6,274.9,47.3L274.9,47.3z"/>
		</g>
	</g>
	<g>
		<g>
			<path d="M222.1,47.3c0,10.7,0,21.3,0,32c0,9.7,15,9.7,15,0c0-10.7,0-21.3,0-32C237.1,37.6,222.1,37.6,222.1,47.3L222.1,47.3z"/>
		</g>
	</g>
	<g>
		<g>
			<path d="M114,489.6c-11.6,0-23.1,0-34.7,0c2.5,2.5,5,5,7.5,7.5c0-12.8,0-25.6,0-38.4c-2.5,2.5-5,5-7.5,7.5c11.6,0,23.1,0,34.7,0
				c-2.5-2.5-5-5-7.5-7.5c0,12.8,0,25.6,0,38.4c0,9.7,15,9.7,15,0c0-12.8,0-25.6,0-38.4c0-4.1-3.4-7.5-7.5-7.5
				c-11.6,0-23.1,0-34.7,0c-4.1,0-7.5,3.4-7.5,7.5c0,12.8,0,25.6,0,38.4c0,4.1,3.4,7.5,7.5,7.5c11.6,0,23.1,0,34.7,0
				C123.7,504.6,123.7,489.6,114,489.6z"/>
		</g>
	</g>
	<g>
		<g>
			<path d="M432.7,489.6c-11.6,0-23.1,0-34.7,0c2.5,2.5,5,5,7.5,7.5c0-12.8,0-25.6,0-38.4c-2.5,2.5-5,5-7.5,7.5
				c11.6,0,23.1,0,34.7,0c-2.5-2.5-5-5-7.5-7.5c0,12.8,0,25.6,0,38.4c0,9.7,15,9.7,15,0c0-12.8,0-25.6,0-38.4c0-4.1-3.4-7.5-7.5-7.5
				c-11.6,0-23.1,0-34.7,0c-4.1,0-7.5,3.4-7.5,7.5c0,12.8,0,25.6,0,38.4c0,4.1,3.4,7.5,7.5,7.5c11.6,0,23.1,0,34.7,0
				C442.4,504.6,442.4,489.6,432.7,489.6z"/>
		</g>
	</g>
</g>
</svg>
