<?xml version="1.0" ?><svg xmlns:dc="http://purl.org/dc/elements/1.1/" xmlns:cc="http://creativecommons.org/ns#" xmlns:rdf="http://www.w3.org/1999/02/22-rdf-syntax-ns#" xmlns:svg="http://www.w3.org/2000/svg" xmlns="http://www.w3.org/2000/svg" xmlns:sodipodi="http://sodipodi.sourceforge.net/DTD/sodipodi-0.dtd" xmlns:inkscape="http://www.inkscape.org/namespaces/inkscape" width="2500" height="2500" viewBox="0 0 661.45832 661.45835" version="1.1" id="svg1107"><defs id="defs1101"/><g id="layer1" style="display:inline"><path style="display:inline;fill:#e5e5e5;fill-opacity:1;stroke:#e5e5e5;stroke-width:0.264583px;stroke-linecap:butt;stroke-linejoin:miter;stroke-opacity:1" d="m 175.05409,360.72318 -21.167,1.6064 6.26,109.111 60.075,19.9679 52.35,-3.5908 61.232,-8.8824 -41.955,-27.9703 z" id="path3237-2-2-8-3"/><path style="display:inline;fill:#ffffff;fill-opacity:1;stroke:#ffffff;stroke-width:1.32292;stroke-linecap:round;stroke-linejoin:round;stroke-miterlimit:4;stroke-dasharray:none;stroke-opacity:1" d="m 298.11709,414.83588 c 5.046,10.2376 15.024,18.5577 32.884,23.8125 16.09,6.6237 29.425,20.4522 36.285,51.2157 3.332,12.1784 -2.242,17.0227 -10.961,19.2768 -7.912,4.6207 -14.636,1.3141 -20.411,-8.3155 -8.606,-32.4227 -41.705,-33.5003 -52.16,-33.4508 -18.3,4.453 -23.602,6.6211 -6.993,24.5684 4.384,6.4294 9.247,12.0919 10.206,24.0015 3.634,15.4163 -5.507,14.0207 -12.285,16.442 -15.761,6.5956 -17.953,-2.7721 -22.111,-9.8274 -13.451,-28.1866 -30.814,-28.9838 -46.869,-38.9316 -19.115,-4.5711 -25.918,-20.0056 -33.262,-34.9627 -19.913,-67.9092 -0.967,-103.3394 26.401,-131.7304 29.642,25.5823 64.563,37.3792 107.024,29.4878 6.13386,24.87926 38.7604,35.12275 61.49055,31.03823 17.60779,6.5701 6.97866,13.20389 -2.1383,17.23998 -4.22009,1.86824 -25.8002,1.99327 -32.93451,0.27788 -7.13431,-1.71538 -15.89228,-5.20812 -22.89848,-8.51542 -7.00621,-3.3073 -10.38976,-10.97272 -13.72426,-13.01537 l -4.725,20.2217" id="path1117-7-0-6"/><circle style="display:inline;mix-blend-mode:normal;fill:#ffffff;fill-opacity:1;stroke:none;stroke-width:6.61458;stroke-linecap:square;stroke-linejoin:miter;stroke-miterlimit:4;stroke-dasharray:none;stroke-dashoffset:0;stroke-opacity:1;paint-order:markers fill stroke" id="circle1063-5-3-6-5" cx="281.79831" cy="229.97375" r="118.8485"/><path style="display:inline;fill:none;fill-opacity:1;stroke:#000000;stroke-width:5.29167;stroke-linecap:round;stroke-linejoin:round;stroke-miterlimit:4;stroke-dasharray:none;stroke-opacity:1" d="m 169.71409,360.85168 c -0.237,0.016 -0.474,0.032 -0.711,0.048 -0.475,0.032 -0.951,0.064 -1.426,0.097 -7.596,0.5166 -14.934,1.0335 -14.934,1.0335 l 6.201,112.4479 m 115.284,13.3144 0.846,-0.1138 0.846,-0.1139 0.847,-0.1138 13.539,-1.8211 13.539,-1.8211 13.54,-1.8211 3.384,-0.4552 3.385,-0.4553" id="path3243-52-8-5"/><path style="display:inline;fill:none;stroke:#000000;stroke-width:6.61458;stroke-linecap:round;stroke-linejoin:round;stroke-miterlimit:4;stroke-dasharray:none;stroke-opacity:1" d="m 325.76209,559.07198 -0.585,-49.9877 -0.292,-24.9939 -0.01,-0.3905 -0.01,-0.3905 v -0.3906 m -124.141,0.8062 -0.01,0.9136 -0.01,0.9134 -0.04,3.6542 -0.04,3.654 -0.04,3.654 -0.146,14.6164 -0.147,14.6164" id="path3245-7-2-1"/><path style="display:inline;fill:none;stroke:#000000;stroke-width:6.61458;stroke-linecap:round;stroke-linejoin:round;stroke-miterlimit:4;stroke-dasharray:none;stroke-opacity:1" d="m 140.05009,556.01868 19.293,-83.6052 m 63.143,21.0474 1.961,86.1385" id="path3247-7-5-7"/><path style="display:inline;fill:none;stroke:#000000;stroke-width:5.29167;stroke-linecap:round;stroke-linejoin:round;stroke-miterlimit:4;stroke-dasharray:none;stroke-opacity:1" d="m 159.87309,471.35508 63.143,21.0474" id="path3249-0-3-9"/><path style="display:inline;fill:none;fill-opacity:1;stroke:#000000;stroke-width:5.29167;stroke-linecap:round;stroke-linejoin:round;stroke-miterlimit:4;stroke-dasharray:none;stroke-opacity:1" d="m 296.11309,373.08778 c -1.754,4.4617 -3.406,9.8012 -3.826,14.1562 -0.091,1.09975 -0.1622,2.10488 -0.20417,3.08467 m 3.51984,20.83814 c 0.66683,1.62846 1.40433,3.14021 2.19233,4.53889 1.51144,2.68275 3.176,5.1128 5.09,7.3023 2.1,2.3952 4.509,4.556 7.233,6.4181 2.723,1.862 5.76,3.4255 9.115,4.6263 32.775,11.73 39.757,27.361 46.307,50.329 5.044,17.682 2.568,22.122 -10.401,25.568 -15.67,4.164 -17.933,-6.02 -20.331,-12.599 -16.224,-44.501 -81.068,-30.629 -66.027,-14.766 6.11,6.726 13.034,13.7419 14.988,20.0669 8.709,28.1901 0.495,27.348 -13.471,30.9181 -16.081,4.112 -14.159,-10.1391 -23.074,-21.9221 -8.915,-11.7828 -25.028,-21.474 -41.684,-27.6234 -21.013,-7.7577 -29.85,-23.3595 -34.801,-42.1915 -16.884,-64.2171 1.614,-97.232 26.989,-123.263" id="path3251-4-7-2"/><ellipse style="display:inline;fill:#000000;fill-opacity:1;stroke:none;stroke-width:5.29166;stroke-linecap:square;stroke-opacity:1;paint-order:markers fill stroke" id="ellipse942-3-2-6-0" cx="254.60295" cy="219.33508" rx="4.911078" ry="4.6772165"/><ellipse style="display:inline;fill:#000000;fill-opacity:1;stroke:none;stroke-width:5.29166;stroke-linecap:square;stroke-opacity:1;paint-order:markers fill stroke" id="ellipse944-7-6-5-1" cx="350.51315" cy="219.33899" rx="4.911078" ry="4.6772165"/><path style="display:inline;fill:#d9d9d9;fill-opacity:1;stroke:none;stroke-width:0.265;stroke-linecap:butt;stroke-linejoin:miter;stroke-miterlimit:4;stroke-dasharray:none;stroke-opacity:1" d="m 317.47809,119.02478 c -9.054,-3.0924 -15.577,-4.9075 -24.411,-5.7268 -8.834,-0.8193 -20.01,-0.2038 -28.372,1.0548 -16.726,2.5173 -33.312,9.2009 -46.615,17.7058 -13.215,8.4499 -25.002,19.3158 -33.674,31.9626 -4.336,6.3234 -7.529,13.6659 -10.535,20.6413 -3.006,6.9752 -5.412,14.1435 -6.989,21.5222 -3.21,15.0092 -3.398,30.434 -0.621,45.3439 2.781,14.9285 9.407,30.2301 17.731,43.1052 8.329,12.8804 19.254,23.6963 32.358,32.5739 13.139,8.9008 29.006,14.8371 46.389,17.6873 -73.084,-28.57 -89.802,-90.8967 -75.525,-142.9611 14.473,-52.7792 68.053,-94.3677 130.264,-82.9091 z" id="path1069-4-1-0-2"/><circle style="display:inline;mix-blend-mode:normal;fill:none;fill-opacity:1;stroke:#000000;stroke-width:6.61458;stroke-linecap:square;stroke-linejoin:miter;stroke-miterlimit:4;stroke-dasharray:none;stroke-dashoffset:0;stroke-opacity:1;paint-order:markers fill stroke" id="circle948-3-6-7-7" cx="281.37253" cy="230.24036" r="118.8485"/><path style="display:inline;fill:none;fill-opacity:1;stroke:#000000;stroke-width:5.29167;stroke-linecap:round;stroke-linejoin:round;stroke-miterlimit:4;stroke-dasharray:none;stroke-opacity:1" d="m 296.33109,373.49418 c 1.642,2.2964 3.328,4.3724 5.052,6.2476 3.446,3.7497 7.043,6.6961 10.732,8.9968 3.688,2.3006 7.468,3.9548 11.284,5.1209 3.813,1.1658 7.663,1.843 11.49,2.1888 3.828,0.346 7.632,0.3607 11.356,0.2008 3.725,-0.159 7.37,-0.4925 10.878,-0.8418 25.041,-2.498 28.789,-16.6836 3.637,-17.2456 -42.006,-0.9386 -49.925,-21.5768 -53.025,-32.0977" id="path2822-3"/><ellipse style="display:inline;fill:none;fill-opacity:1;stroke:#000000;stroke-width:5.29167;stroke-linecap:round;stroke-linejoin:round;stroke-miterlimit:4;stroke-dasharray:none;stroke-opacity:1" id="ellipse2332-1-2-6-2" cx="-531.44897" cy="-231.56657" rx="52.916664" ry="72.967125" transform="matrix(-0.6088347,-0.79329711,-0.79329711,0.6088347,0,0)"/><path style="display:inline;fill:none;stroke:#000000;stroke-width:1.32292;stroke-linecap:butt;stroke-linejoin:miter;stroke-miterlimit:4;stroke-dasharray:none;stroke-opacity:1" d="m 541.46181,318.16474 -61.778,-82.7488" id="path2334-0-6-3-5"/><path style="display:inline;fill:none;stroke:#000000;stroke-width:1.32292;stroke-linecap:butt;stroke-linejoin:miter;stroke-miterlimit:4;stroke-dasharray:none;stroke-opacity:1" d="m 560.60681,232.48824 -116.016,86.2119" id="path2336-9-3-7-0"/><path style="display:inline;fill:none;stroke:#000000;stroke-width:1.32292;stroke-linecap:butt;stroke-linejoin:miter;stroke-miterlimit:4;stroke-dasharray:none;stroke-opacity:1" d="m 530.58181,325.62384 -61.778,-82.7488" id="path2338-2-0-7-2"/><path style="display:inline;fill:none;stroke:#000000;stroke-width:1.32292;stroke-linecap:butt;stroke-linejoin:miter;stroke-miterlimit:4;stroke-dasharray:none;stroke-opacity:1" d="m 560.66981,296.47544 -55.465,-74.2556" id="path2340-2-8-6-2"/><path style="display:inline;fill:none;stroke:#000000;stroke-width:1.32292;stroke-linecap:butt;stroke-linejoin:miter;stroke-miterlimit:4;stroke-dasharray:none;stroke-opacity:1" d="m 553.65481,310.55774 -61.779,-82.7488" id="path2342-9-9-2-2"/><path style="display:inline;fill:none;stroke:#000000;stroke-width:1.32292;stroke-linecap:butt;stroke-linejoin:miter;stroke-miterlimit:4;stroke-dasharray:none;stroke-opacity:1" d="m 571.11081,263.97194 -34.628,-46.2266" id="path2344-2-1-5-6"/><path style="display:inline;fill:none;stroke:#000000;stroke-width:1.32292;stroke-linecap:butt;stroke-linejoin:miter;stroke-miterlimit:4;stroke-dasharray:none;stroke-opacity:1" d="m 569.77781,285.69814 -49.781,-66.6115" id="path2346-4-6-2-8"/><path style="display:inline;fill:none;stroke:#000000;stroke-width:1.32292;stroke-linecap:butt;stroke-linejoin:miter;stroke-miterlimit:4;stroke-dasharray:none;stroke-opacity:1" d="m 508.37381,338.52164 -55.128,-74.5054" id="path2348-9-1-3-0"/><path style="display:inline;fill:none;stroke:#000000;stroke-width:1.32292;stroke-linecap:butt;stroke-linejoin:miter;stroke-miterlimit:4;stroke-dasharray:none;stroke-opacity:1" d="m 474.56981,338.29184 -34.291,-46.4764" id="path2350-4-0-4-7"/><path style="display:inline;fill:none;stroke:#000000;stroke-width:1.32292;stroke-linecap:butt;stroke-linejoin:miter;stroke-miterlimit:4;stroke-dasharray:none;stroke-opacity:1" d="m 493.86481,340.72804 -49.446,-66.8615" id="path2352-5-5-5-2"/><path style="display:inline;fill:none;stroke:#000000;stroke-width:1.32292;stroke-linecap:butt;stroke-linejoin:miter;stroke-miterlimit:4;stroke-dasharray:none;stroke-opacity:1" d="m 520.68381,333.24754 -59.885,-80.2006" id="path2354-1-3-4-1"/><path style="display:inline;fill:none;stroke:#000000;stroke-width:1.32292;stroke-linecap:butt;stroke-linejoin:miter;stroke-miterlimit:4;stroke-dasharray:none;stroke-opacity:1" d="m 570.39081,245.64894 -114.743,85.2647" id="path2356-4-4-5-8"/><path style="display:inline;fill:none;stroke:#000000;stroke-width:1.32292;stroke-linecap:butt;stroke-linejoin:miter;stroke-miterlimit:4;stroke-dasharray:none;stroke-opacity:1" d="m 523.62781,219.11104 -79.496,59.0609" id="path2358-2-4-6-1"/><path style="display:inline;fill:none;stroke:#000000;stroke-width:1.32292;stroke-linecap:butt;stroke-linejoin:miter;stroke-miterlimit:4;stroke-dasharray:none;stroke-opacity:1" d="m 548.27481,221.22194 -108.372,80.5291" id="path2360-4-5-7-4"/><path style="display:inline;fill:none;stroke:#000000;stroke-width:1.32292;stroke-linecap:butt;stroke-linejoin:miter;stroke-miterlimit:4;stroke-dasharray:none;stroke-opacity:1" d="m 567.00781,288.99434 -69.266,51.5321" id="path2362-5-0-9-0"/><path style="display:inline;fill:none;stroke:#000000;stroke-width:1.32292;stroke-linecap:butt;stroke-linejoin:miter;stroke-miterlimit:4;stroke-dasharray:none;stroke-opacity:1" d="m 572.51181,264.46834 -99.418,73.9473" id="path2364-1-8-1-1"/><path style="display:inline;fill:none;stroke:#000000;stroke-width:5.29167;stroke-linecap:round;stroke-linejoin:round;stroke-miterlimit:4;stroke-dasharray:none;stroke-opacity:1" d="m 344.33081,402.80624 104.734,-77.1348" id="path2366-0-2-7-5"/><path style="display:inline;fill:#ffffff;fill-opacity:1;stroke:#000000;stroke-width:5.29167;stroke-linecap:round;stroke-linejoin:round;stroke-miterlimit:4;stroke-dasharray:none;stroke-opacity:1" d="m 222.54009,394.76368 c 32.912,13.7777 77.092,16.2939 82.82,16.4519 26.93,0.7392 55.311,-8.5009 28.54,-13.8835 -26.254,-5.2789 -92.49,-7.8358 -101.858,-36.3145" id="path3263-4"/></g></svg>