<?xml version="1.0" encoding="iso-8859-1"?>
<!-- Generator: Adobe Illustrator 19.0.0, SVG Export Plug-In . SVG Version: 6.00 Build 0)  -->
<svg xmlns="http://www.w3.org/2000/svg" xmlns:xlink="http://www.w3.org/1999/xlink" version="1.1" id="Layer_1" x="0px" y="0px" viewBox="0 0 512.002 512.002" style="enable-background:new 0 0 512.002 512.002;" xml:space="preserve">
<g>
	<g>
		<g>
			<path d="M511.772,367.872c-0.033-41.426-19.692-74.708-51.321-86.867h-0.001c-14.631-5.626-31.201-5.709-46.658-0.234     c-18.749,6.64-51.404,0.461-77.651-14.692c-23.157-13.37-75.611-91.636-88.571-139.013     c-13.616-49.778-55.56-92.971-112.206-115.542c0,0-1.521-0.594-1.706-0.656l-30.95-10.154c-4.006-1.313-8.395,0.012-11.005,3.313     L80.166,18.619c-8.788,11.113-15.629,23.376-20.429,36.314l-8.47-2.779c-4.001-1.31-8.394,0.011-11.005,3.313L28.725,70.059     C4.212,101.06-5.226,140.977,2.792,179.655l6.788,62.181c0.001,0.012,0,0.025,0.001,0.037l18.361,208.23v0.001l4.558,51.71     c0.456,5.183,4.797,9.158,10,9.158h42.615c5.194,0,9.53-3.961,9.998-9.135l3.828-42.305h37.615c5.194,0,9.53-3.961,9.998-9.135     l9.446-104.38c17.541,25.075,38.667,61.698,59.828,113.805c0.109,0.267,6.581,13.409,6.581,13.409     c12.013,23.76,35.733,38.559,61.17,38.559c1.35,0,2.707-0.042,4.066-0.125l122.811-6.68     c16.981-1.054,32.715-12.991,39.153-29.703l8.289-21.522l3.999-0.218c16.981-1.054,32.715-12.991,39.153-29.703l10.055-26.104     l-0.041,0.012c0.452-1.191,0.768-2.59,0.854-4.268c0.042-0.832,0.069-1.941,0.084-3.387     C512.022,387.851,511.79,368.738,511.772,367.872z M75.943,490.893h-24.25l-2.788-31.633h29.9L75.943,490.893z M80.621,439.182     H47.135l-16.05-182.018l63.431,28.519L80.621,439.182z M127.383,439.453h-27.262l3.499-31.633h26.626L127.383,439.453z      M132.062,387.742h-26.625l8.145-89.985c6,5.037,13.806,12.423,22.857,22.924c0.502,0.583,1.016,1.188,1.531,1.796     L132.062,387.742z M430.868,468.064c-3.666,9.519-12.371,16.302-21.583,16.875l-122.811,6.68     c-17.407,1.082-34.641-8.378-44.123-23.833c0.595,0.046,1.19,0.092,1.815,0.14c11.49,0.858,29.897,1.927,52.345,2.142     c2.567,0.025,5.213,0.038,7.942,0.038c34.679,0,81.964-2.17,129.886-11.054L430.868,468.064z M232.145,446.701     C177.734,315.396,122.798,278.066,111.507,271.51c-0.672-0.547-1.418-1.018-2.235-1.383l-80.331-35.945l-6.243-57.192     c-0.036-0.331-0.089-0.66-0.158-0.985c-6.965-32.977,1.028-67.053,21.934-93.491l7.191-9.096l24.008,7.877l0.822,0.325     c50.821,20.251,88.303,58.451,100.267,102.186c13.783,50.386,67.764,133.705,97.899,151.103     c31.391,18.123,70.209,24.798,94.394,16.23c10.788-3.822,22.725-3.803,32.749,0.049c28.347,10.897,38.448,42.391,38.448,68.23     c0,0.069,0.001,0.139,0.002,0.208c0.125,6.046,0.218,12.832,0.235,17.776C348.887,456.255,255.096,448.953,232.145,446.701z      M482.31,416.622c-3.667,9.52-12.372,16.303-21.584,16.876l-0.183,0.01c-0.003-0.381-0.007-0.766-0.011-1.164     c-0.063-6.061-0.185-12.181-0.202-13.035c-0.002-2.547-0.08-5.063-0.229-7.545c8.495-1.188,17.076-2.565,25.682-4.159     L482.31,416.622z M457.21,391.916c-6.711-28.352-23.923-50.136-48.201-59.469c-14.633-5.626-31.203-5.708-46.657-0.235     c-18.747,6.64-51.404,0.461-77.652-14.692c-23.157-13.37-75.611-91.636-88.571-139.013     c-13.616-49.778-55.56-92.971-112.198-115.538l-1.183-0.468c-0.176-0.068-0.352-0.133-0.531-0.191l-3.378-1.108     c4.064-10.727,9.777-20.896,17.078-30.129l7.192-9.096l24.007,7.876l0.822,0.325c50.821,20.251,88.304,58.451,100.267,102.186     c13.783,50.386,67.764,133.705,97.899,151.103c31.39,18.123,70.206,24.798,94.393,16.23c10.79-3.822,22.727-3.804,32.75,0.049     h-0.001c28.348,10.898,38.448,42.392,38.448,68.23c0,0.069,0.001,0.139,0.002,0.208c0.125,6.045,0.218,12.832,0.235,17.776     C480.342,388.345,468.721,390.306,457.21,391.916z"/>
			<path d="M394.599,369.928c-5.171-1.99-10.983,0.592-12.972,5.768s0.593,10.984,5.768,12.972     c7.606,2.924,11.388,14.651,12.392,24.65c0.52,5.176,4.883,9.037,9.977,9.037c0.335,0,0.674-0.017,1.015-0.051     c5.516-0.554,9.54-5.475,8.986-10.992C417.66,390.351,408.488,375.266,394.599,369.928z"/>
			<path d="M68.089,100.242c-4.703-2.936-10.895-1.507-13.834,3.195c-12.781,20.459-17.067,44.757-12.069,68.418     c0.998,4.725,5.167,7.966,9.812,7.966c0.688,0,1.385-0.071,2.084-0.219c5.425-1.146,8.894-6.472,7.748-11.897     c-3.919-18.553-0.562-37.599,9.453-53.63C74.22,109.373,72.791,103.18,68.089,100.242z"/>
			<path d="M66.022,203.823c-0.635-5.508-5.631-9.458-11.122-8.823c-5.508,0.634-9.459,5.614-8.824,11.122l0.017,0.145     c0.59,5.118,4.93,8.891,9.961,8.891c0.384,0,0.772-0.022,1.161-0.067c5.508-0.635,9.459-5.614,8.824-11.122L66.022,203.823z"/>
		</g>
	</g>
</g>
<g>
</g>
<g>
</g>
<g>
</g>
<g>
</g>
<g>
</g>
<g>
</g>
<g>
</g>
<g>
</g>
<g>
</g>
<g>
</g>
<g>
</g>
<g>
</g>
<g>
</g>
<g>
</g>
<g>
</g>
</svg>
